# xmcd
#
# Track frame offsets:
# 150
# 13970
# 30648
# 45653
# 56922
# 73922
# 90585
# 103739
# 119457
# 131539
# 149867
# 168557
#
# Disc length: 2486 seconds
#
#
# Revision: 0
# Processed by: cddbd v1.5PL3 Copyright (c) Steve Scherf et al.
# Submitted via: FreeRIP 2.53 
#
DISCID=b909b40c
DTITLE=Oak Ridge Boys, The - The Millenium Collection
DYEAR=1900
DGENRE=
TTITLE0=Leaving Louisiana In The Broad Daylight
TTITLE1=I'll Be True To You
TTITLE2=Dream On
TTITLE3=Trying To Love Two Women
TTITLE4=Elvira
TTITLE5=Fancy Free
TTITLE6=Bobby Sue
TTITLE7=I Wish You Could Have Turned My Head
TTITLE8=American Made
TTITLE9=I Guess It Never Hurts To Hurt Sometimes
TTITLE10=Make My Life With You
TTITLE11=It Takes A Little Rain
EXTD=
EXTT0=
EXTT1=
EXTT2=
EXTT3=
EXTT4=
EXTT5=
EXTT6=
EXTT7=
EXTT8=
EXTT9=
EXTT10=
EXTT11=
PLAYORDER=
